<svg width="1250" height="309" viewBox="0 0 1250 309" fill="none" xmlns="http://www.w3.org/2000/svg"><path d="M0 309h1250V62.3h-10v-4.8c0-.8-.7-1.5-1.5-1.5h-11.8c-.9 0-1.6.7-1.6 1.5v4.8h-3.6c-.8 0-1.5.6-1.5 1.5 0-.5-.2-.9-.5-1.2.3-.3.5-.7.5-1.1V35.8c0-.9-.7-1.5-1.5-1.5h-3.5v-4.8c0-.8-.7-1.5-1.5-1.5h-12c-.8 0-1.5.7-1.5 1.5v4.8h-10v-4.8c0-.8-.7-1.5-1.5-1.5h-11.8c-.9 0-1.6.7-1.6 1.5v4.8h-3.6c-.8 0-1.5.6-1.5 1.5v25.7c0 .4.2.8.5 1.1-.3.3-.5.7-.5 1.2v25.7c0 .4.2.8.5 1.1-.3.3-.5.7-.5 1.2 0-.9-.7-1.5-1.5-1.5h-3.5v-4.8c0-.8-.7-1.5-1.5-1.5h-12c-.8 0-1.5.7-1.5 1.5v4.8h-10v-4.8c0-.8-.7-1.5-1.5-1.5h-11.8c-.9 0-1.6.7-1.6 1.5v4.8h-3.6c-.8 0-1.5.6-1.5 1.5 0-.9-.7-1.5-1.5-1.5h-3.5v-4.8c0-.8-.7-1.5-1.5-1.5h-12c-.8 0-1.5.7-1.5 1.5v4.8h-10v-4.8c0-.8-.7-1.5-1.5-1.5h-11.8c-.9 0-1.6.7-1.6 1.5v4.8h-3.6c-.8 0-1.5.6-1.5 1.5v25.7c0 .4.2.8.5 1.1-.3.3-.5.7-.5 1.2 0-.9-.7-1.5-1.5-1.5h-3.5v-4.8c0-.8-.7-1.5-1.5-1.5h-12c-.8 0-1.5.7-1.5 1.5v4.8h-10v-4.8c0-.8-.7-1.5-1.5-1.5h-11.8c-.9 0-1.6.7-1.6 1.5v4.8h-3.6c-.8 0-1.5.6-1.5 1.5v25.7c0 .4.2.8.5 1.1-.3.3-.5.7-.5 1.2 0-.9-.7-1.5-1.5-1.5h-3.5v-4.8c0-.8-.7-1.5-1.5-1.5h-12c-.8 0-1.5.7-1.5 1.5v4.8h-10v-4.8c0-.8-.7-1.5-1.5-1.5h-11.9c-.8 0-1.5.7-1.5 1.5v4.8h-3.6c-.8 0-1.5.6-1.5 1.5v-28c0-.5-.2-.9-.5-1.2.3-.3.5-.7.5-1.1V91.8c0-.5-.2-.9-.5-1.2.3-.3.5-.7.5-1.1V63.8c0-.9-.7-1.5-1.5-1.5H965v-4.8c0-.8-.7-1.5-1.5-1.5h-12c-.8 0-1.5.7-1.5 1.5v4.8h-10v-4.8c0-.8-.7-1.5-1.5-1.5h-11.9c-.8 0-1.5.7-1.5 1.5v4.8h-3.6c-.8 0-1.5.6-1.5 1.5v25.7c0 .4.2.8.5 1.1-.3.3-.5.7-.5 1.2v25.7c0 .4.2.8.5 1.1-.3.3-.5.7-.5 1.2 0-.9-.7-1.5-1.5-1.5H915v-4.8c0-.8-.7-1.5-1.5-1.5h-12c-.8 0-1.5.7-1.5 1.5v4.8h-10v-4.8c0-.8-.7-1.5-1.5-1.5h-11.9c-.8 0-1.5.7-1.5 1.5v4.8h-3.6c-.8 0-1.5.6-1.5 1.5 0-.5-.2-.9-.5-1.2.3-.3.5-.7.5-1.1V91.8c0-.9-.7-1.5-1.5-1.5H865v-4.8c0-.8-.7-1.5-1.5-1.5h-12c-.8 0-1.5.7-1.5 1.5v4.8h-10v-4.8c0-.8-.7-1.5-1.5-1.5h-11.9c-.8 0-1.5.7-1.5 1.5v4.8h-3.6c-.8 0-1.5.6-1.5 1.5v25.7c0 .4.2.8.5 1.1-.3.3-.5.7-.5 1.2 0-.9-.7-1.5-1.5-1.5H815v-4.8c0-.8-.7-1.5-1.5-1.5h-12c-.8 0-1.5.7-1.5 1.5v4.8h-10v-4.8c0-.8-.7-1.5-1.5-1.5h-11.9c-.8 0-1.5.7-1.5 1.5v4.8h-3.6c-.8 0-1.5.6-1.5 1.5 0-.5-.2-.9-.5-1.2.3-.3.5-.7.5-1.1V91.8c0-.9-.7-1.5-1.5-1.5H765v-4.8c0-.8-.7-1.5-1.5-1.5h-12c-.8 0-1.5.7-1.5 1.5v4.8h-10v-4.8c0-.8-.7-1.5-1.5-1.5h-11.9c-.8 0-1.5.7-1.5 1.5v4.8h-3.6c-.8 0-1.5.6-1.5 1.5v25.7c0 .4.2.8.5 1.1-.3.3-.5.7-.5 1.2v25.7c0 .4.2.8.5 1.1-.3.3-.5.7-.5 1.2 0-.9-.7-1.5-1.5-1.5H715v-4.8c0-.8-.7-1.5-1.5-1.5h-12c-.8 0-1.5.7-1.5 1.5v4.8h-10v-4.8c0-.8-.7-1.5-1.5-1.5h-11.9c-.8 0-1.5.7-1.5 1.5v4.8h-3.6c-.8 0-1.5.6-1.5 1.5v-56c0-.5-.2-.9-.5-1.2.3-.3.5-.7.5-1.1V63.8c0-.5-.2-.9-.5-1.2.3-.3.5-.7.5-1.1V35.8c0-.9-.7-1.5-1.5-1.5H665v-4.8c0-.8-.7-1.5-1.5-1.5h-12c-.8 0-1.5.7-1.5 1.5v4.8h-10v-4.8c0-.8-.7-1.5-1.5-1.5h-11.9c-.8 0-1.5.7-1.5 1.5v4.8h-3.6c-.8 0-1.5.6-1.5 1.5v25.7c0 .4.2.8.5 1.1-.3.3-.5.7-.5 1.2 0-.9-.7-1.5-1.5-1.5H615v-4.8c0-.8-.7-1.5-1.5-1.5h-12c-.8 0-1.5.7-1.5 1.5v4.8h-10v-4.8c0-.8-.7-1.5-1.5-1.5h-11.8c-.9 0-1.6.7-1.6 1.5v4.8h-3.6c-.8 0-1.5.6-1.5 1.5v25.7c0 .4.2.8.5 1.1-.3.3-.5.7-.5 1.2 0-.9-.7-1.5-1.5-1.5H565v-4.8c0-.8-.7-1.5-1.5-1.5h-12c-.8 0-1.5.7-1.5 1.5v4.8h-10v-4.8c0-.8-.7-1.5-1.5-1.5h-11.8c-.9 0-1.6.7-1.6 1.5v4.8h-3.6c-.8 0-1.5.6-1.5 1.5 0-.5-.2-.9-.5-1.2.3-.3.5-.7.5-1.1V63.8c0-.9-.7-1.5-1.5-1.5H515v-4.8c0-.8-.7-1.5-1.5-1.5h-12c-.8 0-1.5.7-1.5 1.5v4.8h-10v-4.8c0-.8-.7-1.5-1.5-1.5h-11.8c-.9 0-1.6.7-1.6 1.5v4.8h-3.6c-.8 0-1.5.6-1.5 1.5v25.7c0 .4.2.8.5 1.1-.3.3-.5.7-.5 1.2v25.7c0 .4.2.8.5 1.1-.3.3-.5.7-.5 1.2 0-.9-.7-1.5-1.5-1.5H465v-4.8c0-.8-.7-1.5-1.5-1.5h-12c-.8 0-1.5.7-1.5 1.5v4.8h-10v-4.8c0-.8-.7-1.5-1.5-1.5h-11.8c-.9 0-1.6.7-1.6 1.5v4.8h-3.6c-.8 0-1.5.6-1.5 1.5 0-.5-.2-.9-.5-1.2.3-.3.5-.7.5-1.1V91.8c0-.9-.7-1.5-1.5-1.5H415v-4.8c0-.8-.7-1.5-1.5-1.5h-12c-.8 0-1.5.7-1.5 1.5v4.8h-10v-4.8c0-.8-.7-1.5-1.5-1.5h-11.8c-.9 0-1.6.7-1.6 1.5v4.8h-3.6c-.8 0-1.5.6-1.5 1.5v-28c0-.5-.2-.9-.5-1.2.3-.3.5-.7.5-1.1V35.8c0-.9-.7-1.5-1.5-1.5H365v-4.8c0-.8-.7-1.5-1.5-1.5h-12c-.8 0-1.5.7-1.5 1.5v4.8h-10v-4.8c0-.8-.7-1.5-1.5-1.5h-11.8c-.9 0-1.6.7-1.6 1.5v4.8h-3.6c-.8 0-1.5.6-1.5 1.5 0-.5-.2-.9-.5-1.2.3-.3.5-.7.5-1.1V7.8c0-.9-.7-1.5-1.5-1.5H315V1.5c0-.8-.7-1.5-1.5-1.5h-12c-.8 0-1.5.7-1.5 1.5v4.8h-10V1.5c0-.8-.7-1.5-1.5-1.5h-11.8c-.9 0-1.6.7-1.6 1.5v4.8h-3.6c-.8 0-1.5.6-1.5 1.5v25.7c0 .4.2.8.5 1.1-.3.3-.5.7-.5 1.2v25.7c0 .4.2.8.5 1.1-.3.3-.5.7-.5 1.2 0-.9-.7-1.5-1.5-1.5H265v-4.8c0-.8-.7-1.5-1.5-1.5h-12c-.8 0-1.5.7-1.5 1.5v4.8h-10v-4.8c0-.8-.7-1.5-1.5-1.5h-11.8c-.9 0-1.6.7-1.6 1.5v4.8h-3.6c-.8 0-1.5.6-1.5 1.5v28c0-.9-.7-1.5-1.5-1.5H215v-4.8c0-.8-.7-1.5-1.5-1.5h-12c-.8 0-1.5.7-1.5 1.5v4.8h-10v-4.8c0-.8-.7-1.5-1.5-1.5h-11.8c-.9 0-1.6.7-1.6 1.5v4.8h-3.6c-.8 0-1.5.6-1.5 1.5v25.7c0 .4.2.8.5 1.1-.3.3-.5.7-.5 1.2 0-.9-.7-1.5-1.5-1.5H165v-4.8c0-.8-.7-1.5-1.5-1.5h-12c-.8 0-1.5.7-1.5 1.5v4.8h-10v-4.8c0-.8-.7-1.5-1.5-1.5h-11.8c-.9 0-1.6.7-1.6 1.5v4.8h-3.6c-.8 0-1.5.6-1.5 1.5v25.7c0 .4.2.8.5 1.1-.3.3-.5.7-.5 1.2 0-.9-.7-1.5-1.5-1.5H115v-4.8c0-.8-.7-1.5-1.5-1.5h-12c-.8 0-1.5.7-1.5 1.5v4.8H90v-4.8c0-.8-.7-1.5-1.5-1.5H76.7c-.9 0-1.6.7-1.6 1.5v4.8h-3.6c-.8 0-1.5.6-1.5 1.5v-.8h-1.5c.8 0 1.5-.7 1.5-1.5v-25.7c0-.5-.2-.9-.5-1.2.3-.3.5-.7.5-1.1V91.8c0-.9-.7-1.5-1.5-1.5H65v-4.8c0-.8-.7-1.5-1.5-1.5h-12c-.8 0-1.5.7-1.5 1.5v4.8H40v-4.8c0-.8-.7-1.5-1.5-1.5H26.7c-.9 0-1.6.7-1.6 1.5v4.8h-3.6c-.8 0-1.5.6-1.5 1.5 0-.5-.2-.9-.5-1.2.3-.3.5-.7.5-1.1V63.8c0-.9-.7-1.5-1.5-1.5H15v-4.8c0-.8-.7-1.5-1.5-1.5H0v253Z" fill="#008746"/></svg>
