<svg height="50" preserveAspectRatio="xMidYMin meet" xmlns="http://www.w3.org/2000/svg">
  <pattern id="p1" width="375" height="50" patternUnits="userSpaceOnUse"  >
      <path d="M375 0.00178833C351.263 -0.172609 328.401 13.1094 317.941 34.6264C310.148 28.0129 299.911 24 288.698 24C280.795 24 273.376 25.9938 266.956 29.4867C264.095 26.1368 259.753 24 254.893 24C249.42 24 244.605 26.709 241.82 30.8083C231.153 12.4294 210.727 0 187.281 0C175.923 0 165.273 2.91687 156.099 8.01395C149.141 2.98223 140.488 0 131.111 0C111.907 0 95.7416 12.5081 90.9488 29.5124C87.3492 27.9002 83.3352 27 79.1023 27C70.4533 27 62.7175 30.7586 57.5656 36.6695C48.0971 15.1217 25.8611 0 0 0V50H375V0.00178833Z" fill="currentColor"/>
    </pattern>
  <rect width="100%" height="50" fill="url(#p1)" />
</svg>
