<svg xmlns="http://www.w3.org/2000/svg" xmlns:xlink="http://www.w3.org/1999/xlink" viewBox="0 0 499.62 263.03"><defs><style>.cls-1{fill:none;}.cls-2{fill:#c8191b;}.cls-3{clip-path:url(#clip-path);}.cls-4{fill:#fff;}</style><clipPath id="clip-path"><path class="cls-1" d="M498.92,240.45c-.35-.9.39-1.51.39-2.39v-.47a2.06,2.06,0,0,0,0-2.27,1,1,0,0,1-.12-.44,31.44,31.44,0,0,0-.95-4.55c-.19-.39-.37-.83-.57-1.29-.66-1.62-.05-2.32.38-3.83a5.28,5.28,0,0,0,.08-2.05,26.05,26.05,0,0,0-.46-3.94l.7-.39c.1.14-.72.26-.7.39-.23-1.05.35-1.31.42-2.41a13.94,13.94,0,0,0-.2-5.33v-.43a6.22,6.22,0,0,0-.22-2.1,3.16,3.16,0,0,0-.17-.64h.1c-.06-.56-.14-1.22-.22-1.89l0,.1h0v.06l0-.13v0h0l-.9-2.65a.23.23,0,0,0,0,0v0h0v-.05l.05-.27h0v0h0v-.19h0s0,0,0,0a1,1,0,0,0,.08-.14h-.05l0-.09h0s0,0,0,0a.09.09,0,0,0,0-.09c0-.05,0-.12.07-.12h-.05v-.14h0a.58.58,0,0,1,.05-.18h0v-.23h-.15c0-.44,0-.86.05-1.21,0,0,0,0,.05-.07l.11.07,0-.12h-.09v-.06c-.05,0-.05-.12-.06-.19a6.71,6.71,0,0,0,.14-1.93.05.05,0,0,1,.05,0h0s0,0,0,0h0c0-.25-.09-.41-.13-.6a13.3,13.3,0,0,0-.46-3.29l.09,0,0,.07.11,0a6.48,6.48,0,0,0-.7-2.18h-.2a.67.67,0,0,1-.17-.35h-.05v-.07c0-.06-.07-.07-.1-.11v-.11h0v-.07h-.05a.31.31,0,0,0-.07-.15l0,0v-.06h0l0-.12s-.05,0-.05-.09h0v-.06c-.15,0-.11-.08-.17-.13h-.1v0l-.06,0v0h-.06V191h-.13v0h-.05v0h-.05l0-.06a.29.29,0,0,1-.1,0l0,0c-.07-.12,0-.12-.13-.12s-.06.05-.06.07a.15.15,0,0,1-.09,0v-.05h-.09v-.07a.28.28,0,0,0-.16.07v-.07h-.13l0,0h-.06a.64.64,0,0,1-.05.16c0-.07,0-.07-.14-.07a.31.31,0,0,0,0,.07.24.24,0,0,1-.1,0v-.05H493v-.07a.22.22,0,0,0-.16.07v-.07h-.11l0,0h-.09s0,0,0,.09h0a.09.09,0,0,1,0,.07.17.17,0,0,1-.08,0v-.05h-.11v-.07a.14.14,0,0,0-.14.07c0-.06,0-.07-.05-.07h-.07v0h-.07s0,.09,0,.16,0-.07-.12-.07l-.06.07a.3.3,0,0,1-.1,0v-.05h-.11v-.07l-.11,0,0,0h-.13v0h0l0,0-1.69-.13-.67.13,0,.24-.56-.28-.62-.11-.85-.29-.61,0a10.47,10.47,0,0,0-3.78-.36,10.18,10.18,0,0,1-2.12-.17c-.76-.14-1.51-.67-2.1-.5s-.95,1.32-1.67,1.25-.92-1.51-1.55-.39a6.69,6.69,0,0,0-1.54-.82c-.62-.13-.66.32-1.05.33h0a9.14,9.14,0,0,0-1.07-.12,9.24,9.24,0,0,0-4.62,1.16h0c-.17,0-.3.25-.3.58a9.32,9.32,0,0,1-1.18.05c-.08,1.38-.17,2.73-.19,4.08,0,1-.39,1.55-.39,2.43v1.64c0,1.24.35,4.11.35,4.11a3.84,3.84,0,0,1,.23,1.41,12.92,12.92,0,0,1,0,2c-.11.78-.11-.59-.11,1.15,0,1.15-.29,2.34.35,3.22.38.53.71.27.86,1.21a4.52,4.52,0,0,1,0,.59h-.05a2.17,2.17,0,0,0,0,.24s0,0-.05.07h.05a5.41,5.41,0,0,0-.1.86c0,.08,0,.18-.06.23-.34.81-1,1.39-1.31,2.27a8.84,8.84,0,0,0-.51,2.44c0,.94.45,1.64.45,2.52s.23.72,0,1.23a5.48,5.48,0,0,0-.45,1.9v2.48c0,.37.57,1.53.45,1.88a5.29,5.29,0,0,0-.3,1.81c0-.05.05-.05.06-.09a19.85,19.85,0,0,0,.39,4.24,1.85,1.85,0,0,0-.09.63,3.78,3.78,0,0,0-.05.76h.05c0,.26,0,.53,0,.79h-.06c.05.21.06.35.09.54v.6a.3.3,0,0,0,0,.14c0,.25,0,.51,0,.76-.1.58-.4,1-.55,1.65-.26,1.37.6,1.85.78,3.09.23,1.71-.1,3.66,0,5.39a11.38,11.38,0,0,0-.08,1.93c0,.19.74,1.67.82,1.35-.37,1.21.53,1.21,1.28,1.2,0,1.09.3,2.67,1.56,2.63.48,0,.61-.77,1.17-.77s.46.64,1,.62c.28,0,1.09-.69,1.52-.78a5.17,5.17,0,0,1,1.52-.15c1.11.21,1.62.95,2.94.89,1.12,0,2.42-.65,3.52-.31.8.19,1.17,1.26,2.15-.08.13.24.53.43.64.71.28-.23.58-.53.88-.76.65,1.39.92.18,1.76,0,.52-.11,1.07.28,1.65.24s1.18-.52,1.81-.4,1.56,1.27,1.93.37a.62.62,0,0,0-.05-.58l.41.05.45-.12.76.17.52.11,1,.48.94-.39.88-.09.51-.28.33-.3-.14-.35.07,0,.87.86.4.14a3.25,3.25,0,0,0,.62-.74c.34-.53.13-.53.13-1.16a1,1,0,0,0-.44-.88s0-.74.09-2c.05-.49.09-.79.09-1h-.06a6.24,6.24,0,0,0,.29-3.12c0,.06,0,.06,0,.11v-2.61a8.43,8.43,0,0,1,.64-2.51C499.75,241,499.2,241.31,498.92,240.45Z"/></clipPath></defs><title>viz_logo</title><g id="Layer_2" data-name="Layer 2"><g id="Layer_1-2" data-name="Layer 1"><path d="M351,128.47a12.91,12.91,0,0,1-2.59,1.66c-4.45,1.56-8.91,3.08-13.42,4.45a11.83,11.83,0,0,1-3.86.13c-3.29-.15-5.9,1.39-8.53,3.13A1.71,1.71,0,0,0,325,139c4.61-1.27,9.24-2.46,13.88-3.62,3.06-.77,6.14-1.4,9.2-2.15,2.31-.57,4.6-1.22,6.78-1.8-1-2-1.93-3.76-2.9-5.62a45.25,45.25,0,0,0,5.66-1c2.93-.94,5.79-2.09,8.66-3.21s5.81-2.46,8.77-3.53c3.16-1.15,6.38-2.12,9.58-3.13.26-.09.61.11.92.18a2.41,2.41,0,0,1-.26.92c-.49.59-1.1,1.08-1.59,1.67-.81,1-.54,1.87.21,2.79a4,4,0,0,1,.35,4.81,1.89,1.89,0,0,0-.33,1.35c.57,1.54.47,2.7-1.31,3.27-.16,0-.22.39-.32.59.45.3.83.55,1.2.81-.35.27-.68.58-1.05.81-1.49.89-3.16,1.52-3.13,3.8,0,.54-1.13,1.19-1.85,1.61-2.06,1.23-2.2,3.16,0,4.2,2.72,1.3,2.68,3.91,3.39,6.17.09.28-.61,1-1.08,1.23-2,.92-4,1.69-6,2.59-.52.23-.89.78-1.35,1.14-.64.52-1.29,1-1.95,1.5-.33.23-.77.36-1,.66-1.73,2.26-4.26,2.29-6.74,2.46-.29,0-.72-.15-.85,0-1.93,2-4.69,1.49-7,2.31a78.59,78.59,0,0,1-8.65,2.14c-.89.2-1.82.21-2.72.32-3.09.39-6.19.76-9.27,1.19-1.74.25-3.55,1.1-5.18.81-2.86-.51-5.48.65-8.24.76-4.79.19-9.51,1.76-14.29,2.63a31.35,31.35,0,0,1-4.56.17,1.37,1.37,0,0,0-.49.17c-4.11,2.07-8.64,2.09-13.05,2.72-.93.13-1.84.43-2.9.68a12,12,0,0,0,.9,2c2.28,3.15,1.87,6.82,1.81,10.32,0,1.75-1.07,3.51-1.73,5.23-1.09,2.83-2.24,5.64-3.54,8.9l6.49-.45c7.21-.48,14.42-1,21.63-1.44,2.75-.18,5.51-.18,8.26-.43,6-.54,12-1.22,18-1.79,3.35-.31,6.71-.65,10.08-.75,5.93-.18,11.78-1.08,17.66-1.81a72.39,72.39,0,0,1,8.84-.43c3.41,0,6.84.26,10.25.21a80.63,80.63,0,0,0,8.51-.66A7.83,7.83,0,0,0,395,189c.56-.32,1.1-.87,1.7-.93,2.77-.29,5.61-1.64,8.29-.6,2.05.79,3.33-.25,5-.75,2.54-.78,5.17-1.29,7.77-1.9a9.74,9.74,0,0,0,1.45-.18c3.78-1.47,7.78-1.89,11.74-2.52a49.2,49.2,0,0,0,5.72-1.6L442,179l.27.4a23,23,0,0,0-2.22,1.67c-.32.3-.39.86-.67,1.53l4.81-.94c.09,1.2.25,1.84-1,2.48-3.18,1.62-6.21,3.56-9.22,5.49-.52.33-1.84,1-.66,2-2.71,1.85-5.49,3.7-8.22,5.62a2.37,2.37,0,0,0-.74,1.35,50.66,50.66,0,0,1-1.21,5.55,8.39,8.39,0,0,0-.38,5.59c.33,1.06-.17,2.37.14,3.44a43,43,0,0,0,2.74,7.47c1.16,2.26,1.43,4.32-.3,6.16a3.65,3.65,0,0,1-3,.65,44.9,44.9,0,0,0-13.16-1.07c-3.05.08-6.1.62-9.15.66-2.5,0-5-.43-7.53-.52s-4.95.05-7.43.05c-.77,0-1.54-.19-2.31-.21-4.74-.14-9.49-.49-14.21-.31-5.5.2-11,.93-16.48,1.31-1.8.12-3.64-.23-5.45-.16a32.92,32.92,0,0,0-9.68,2.28c-2.31.83-4.89.93-7.36,1.32-1.66.26-3.32.56-5,.69-2.77.22-5.54.32-8.32.47a13.93,13.93,0,0,0-1.45.1c-2.7.44-5.41.84-8.09,1.37-1.14.22-2.24,1.05-3.33,1a8,8,0,0,0-5.75,1.9c-1.68,1.34-3.78.86-5.7,1.09s-3.67-.84-5.43-1c-4.27-.4-8.55-1.75-12.91-.18-3.27,1.19-8.14-1.67-9.41-5.27-.64-1.81-1.26-3.62-1.94-5.42-.11-.28-.5-.49-.8-.65-2.07-1-2.77-2.58-1.95-4.71.47-1.2,1.17-2.29-.09-3.43a.72.72,0,0,1,0-.7c1.36-1.68.39-3.63.65-5.42.37-2.53,1.11-5,1.23-7.55.21-4.17,2.62-7.55,3.69-11.39.8-2.88,1.87-5.69,2.55-8.6.19-.79-.62-1.81-1-2.71a8.19,8.19,0,0,1-.51-1.19c-.39-1.86-1.79-2.44-3.57-1.81-2.27.8-4.65,1.3-7,1.95-3,.83-6,1.6-8.92,2.57a17,17,0,0,0-3.14,1.89c-.54.32-1.1.62-1.78,1v2.15c-2.18,1.83-5.52,2-6.65,5.38a34.38,34.38,0,0,1-18.53-13.77l-1.71,1c-2.38-1.31-2.86-3.63-3.19-6-.23-1.7-.3-3.43-.64-5.11a3.92,3.92,0,0,0-1.21-2.15,3.3,3.3,0,0,1-1.11-3.47,1.87,1.87,0,0,1,1.17-1.23c1.51-.16,1.5-.71,1-2a16.75,16.75,0,0,1-.73-3.83,8.51,8.51,0,0,1-.17-2.74c.51-2.62,1.24-5.2,1.75-7.83a8,8,0,0,0-.5-2.52c1.75,0,3.68,0,5.61.18,3.31.23,6.61.73,9.92.8,3.74.07,7.49-.32,11.24-.31,4.52,0,9,.42,13.56.3,6.31-.18,12.61-.66,18.91-1.06,3.11-.2,6.22-.44,9.32-.75,4.31-.43,8.61-1,12.92-1.41,1.89-.2,3.79-.3,5.69-.47.35,0,.84-.1,1-.34,1.42-2.05,3.87-1.3,5.71-2.19a9,9,0,0,1,2.84-1.1c1.79-.18,3.63.13,5.4-.09,2.53-.31,5-.91,7.53-1.41s4.75-.92,7.08-1.54c2.89-.76,5.69-1.9,8.6-2.51C341.17,129.72,345.75,127.6,351,128.47Zm52.47,76.71c-.51-1.66-.9-3.27-1.51-4.79a1.91,1.91,0,0,0-1.5-.74,91.68,91.68,0,0,0-9.39.48c-3.49.45-6.85,1.71-10.48,1.18-.72-.1-1.54.52-2.32.81l.12.42,4.56.22c-.62.29-.93.56-1.24.56-1.84.05-3.52.76-5.5.52-2.28-.28-4.7.5-7.06.81l0,.52a4.46,4.46,0,0,0,1.2.36c3.43.15,6.87.4,10.31.34,6.81-.13,13.63-.45,20.44-.68C401.9,205.16,402.75,205.18,403.47,205.18ZM308.74,141c-5.55-.9-30.47,2.94-31.52,4.61C288.13,146.79,298.42,143.71,308.74,141Zm117.7,52.08,3.81-1.22A2.44,2.44,0,0,0,426.44,193.06Z"/><path d="M259.5,62.92c.52-4.64.69-10,1.85-15.19.79-3.5,2.86-6.76,4.58-10a40.85,40.85,0,0,1,3.75-5.38,12.7,12.7,0,0,1,2-2.07c1.52-1.27,3.09-2.48,4.65-3.7.55-.43,1.13-.83,1.69-1.25a21.06,21.06,0,0,1,2.42-1.83,67.52,67.52,0,0,1,9-4.56A25.78,25.78,0,0,1,297,18c3.91-.16,7.86.2,11.75-.16a18.72,18.72,0,0,1,8.49.89c3.56,1.31,7.42,2.12,10,5.27,1.56,1.9,3,3.89,4.41,5.94a40.21,40.21,0,0,1,3.07,5.27c.72,1.52,1,3.25,1.67,4.79.6,1.35,1.57,2.53,2.23,3.85a45.11,45.11,0,0,1,4.23,15.7,25.28,25.28,0,0,0,.63,3.21c1,3.87-.93,7.44-1.22,11.19a97.15,97.15,0,0,1-1.84,12.57,16.51,16.51,0,0,1-2.57,5.33c-1.26,2-2.91,3.65-4.24,5.56-3.17,4.58-7.62,7.39-12.59,9.62-2.93,1.32-5.68,3-8.55,4.49-.58.29-1.37.16-2,.4a20.52,20.52,0,0,0-4.86,2.17,16.21,16.21,0,0,1-8.69,2.85c-4.95.38-9.35-1.54-13.46-4a51,51,0,0,1-7.69-5.51,44.45,44.45,0,0,1-10.14-13.58c-3.86-7.9-5-16.4-5.62-25C259.82,67,259.68,65.31,259.5,62.92Zm32.4-17.17h-.78a11.52,11.52,0,0,0-8.66,2.61A19.81,19.81,0,0,0,280.63,51c-1.46,1.8-3.29,3.37-4.4,5.36-2,3.56-1.3,7.57-.65,11.31.74,4.3,3.38,7.61,6.83,10.39,2.89,2.34,5.75,4.13,9.66,3.48a22.89,22.89,0,0,1,4.53-.28c2.45.09,4-1.27,5.34-3,.69-.87,1.6-1.55,2.26-2.43,1.19-1.59,2.3-3.25,3.38-4.92a5.29,5.29,0,0,0,1-2.07c.23-2.07,1-4.5.17-6.13-.69-1.42-.54-2.61-.74-3.9-.5-3.34-.43-6.87-4.06-8.86C300.05,47.85,296.6,44.68,291.9,45.75ZM272.69,56.61c-2.35,4-1.71,7.88-1.06,11.82C272,64.59,272.31,60.76,272.69,56.61Z"/><path d="M51.8,263c3.6-2.94,7.38-5.7,10.78-8.87A155.84,155.84,0,0,0,84.08,229c2.87-4.1,6.21-7.88,9.17-11.92,3.44-4.7,6.61-9.59,10.07-14.28,1.86-2.51,4.07-4.78,6.23-7.29l-1-.5c3.09.08,3.44-3.37,5.68-4.56-.55,0-1.21-.2-1.62,0-5,2.88-10,5.83-15.16,8.9,2.15.37,4.17-.64,8.65-4.12-.27,2.09-2,2.82-3.34,3.69-3.08,2-6.31,3.76-9.5,5.59-.45.26-1.1.2-1.52.48-1.48,1-3.42,1.8-4.24,3.22-1.73,3-5,3.52-7.41,5.42a71.3,71.3,0,0,1-6.53,4.21c-1.55,1-3.13,1.89-4.77,2.87L67,220c-1,2.25-2.52,3.69-5.08,3.78-.25,0-.54.31-.71.54-1.59,2.2-4.1,2.72-6.43,3.6a41.26,41.26,0,0,0-3.85,1.86,89.07,89.07,0,0,0-8.06,4,37.6,37.6,0,0,0-5.35,4.54c-2,1.88-4,3.85-5.92,5.8a1.17,1.17,0,0,0-.39.75c.2,2.13-1.15,1.82-2.52,1.72-2.13-.16-4.28-.11-6.41-.32a8.82,8.82,0,0,1-2.6-.93A19.37,19.37,0,0,1,17.35,244c-2.34-1.54-4.68-3.09-7-4.7a1.4,1.4,0,0,1-.27-1.18c.75-3.76-1.15-6.9-2.35-10.2-.22-.61-.39-1.25-.67-1.84-.65-1.36-1-2.78-3-3.22-4.61-1.06-4.23-3.53-4-7.3.05-1-.1-2,0-3,.12-1.34,1-1.88,2.11-2.73,2.77-2.23,5-.57,7.54,0a7.15,7.15,0,0,0,4-.26c7.85-3.36,15.66-6.84,23.44-10.36,4.36-2,8.69-4,13-6.13,3-1.49,5.76-3.29,8.65-4.91a7,7,0,0,1,1.45-.45l.24.46-4.62,3.11c4-.9,6.58-2.93,6.31-4.95,1.37-.67,2.81-2,4.14-1.86,1.81.16,2.72-1.09,4.1-1.42.44-.11,1.18.69,1.51.52a9.84,9.84,0,0,0,2.62-1.86c1-1,2-1.54,3.52-.89,1.29.58,3.91-.83,4.37-2.23s1.63-1.61,3.3-1.76c1.3-.12,2.61-1.16,3.73-2,2.15-1.65,4.19-3.46,6.25-5.23.88-.76,1.57-1.92,2.58-2.32,2-.77,3.82-1.89,5.74-2.64,1.5-.59,2.94-1.31,4.45-1.87.26-.1.79.5,1.2.78,0,.23,0,.45,0,.68l5.11-2.38-1.72-1c3.51-1.2,7.55-1,9.54-5.35.15.74.22,1.06.36,1.78,2.39-1,4.79-1.84,7-3,3.17-1.64,6.18-3.51,9.71-4.45,2.88-.76,5.59-2.19,8.4-3.25,1.87-.71,3.8-1.26,5.68-2,1.05-.39,2-1,3.07-1.35a4.45,4.45,0,0,1,1.79.25l0,.45c.73-.52,1.44-1.08,2.21-1.54a1.69,1.69,0,0,1,1.2-.25A49.63,49.63,0,0,1,170,145a9.74,9.74,0,0,1,3.44,3.89c.9,1.62,1.33,3.47,2.18,5.18,1,2,1.14,4.43,1.63,6.68.7,3.25-1.24,6.06-4.48,7.09a26.94,26.94,0,0,0-5.33,2.63,88.37,88.37,0,0,0-8.66,5.48,49.56,49.56,0,0,1-8.71,5.21,37.49,37.49,0,0,0-6.22,3.94c-2.86,2.15-5.66,4.4-8.35,6.77-1.49,1.32-2.68,3-4.06,4.45-.74.79-1.66,1.42-2.37,2.23-3.52,4-7.06,8-10.47,12.15-4.14,5-8.13,10.13-12.23,15.16-1.66,2-3.42,4-5.19,5.93-4.48,4.89-9,9.7-13.47,14.62a36.39,36.39,0,0,1-11,8.2c-3.75,1.86-7.37,4-11,6-.11.06-.22.2-.3.18-3.49-.93-6.32,1.54-9.56,1.84-1.38.12-2.78,0-4.16,0Zm56.06-76.47c2.39-1.52,4.62-3,6.94-4.39,3.08-1.81,6.23-3.48,9.35-5.21.11-.06.23-.19.32-.17,2.13.48,3.51-.95,5.14-1.88,1-.57,2.52-1.27,3.37-.9,1.55.65,2-.2,2.78-1a5.72,5.72,0,0,1,1.2-1.16c3.09-1.82,6.21-3.59,9.52-5.5l-2-.84c-1.72,2.12-5.11.9-6.33,3.32a7.18,7.18,0,0,0-1.66.22c-1.61.62-3.15,1.42-4.79,2-.66.22-1.15.11-1.32,1.08-.08.42-1.26.72-2,.94-.44.14-1.06-.15-1.43,0-1.28.73-2.39,2-3.73,2.3-3.22.63-5.88,2.24-8.57,3.9-.91.57-1.8,1.46-2.78,1.6-4.08.59-7.33,2.94-10.84,4.73a1.52,1.52,0,0,0-.55.49c-.41.65-.46,1.61-1.58,1.63-.15,0-.32.68-.4,1.07a1.22,1.22,0,0,0,.63.29c.61,0,1.23,0,1.85,0,.11.26.22.51.34.76a20.85,20.85,0,0,1,1.5-2,2.76,2.76,0,0,1,1.14-.5c.48-.16,1.23-.12,1.41-.42C106.2,185.65,107,185.58,107.86,186.56Zm24.24-19.77-.3-.67a9.84,9.84,0,0,0-1.89.46c-3.85,1.77-7.7,3.57-11.51,5.44-.5.24-.73,1-1.2,1.39a9.78,9.78,0,0,1-1.74,1s-.17-.09-.33-.19l.89-.83-.31-.42a56.7,56.7,0,0,0-9.25,5.26c2.11.51,3.38.64,4.93-.7,2.1-1.81,5.4-1.71,7.59-3.74a1.58,1.58,0,0,1,1.35-.36c2,.91,2.94-1.38,4.66-1.59,1.09-.13,2.05-1.37,3.08-2.11Zm26.3-12.17-.06-.42c-1.54.21-3.5-.1-4.53.74-1.93,1.57-4.55,1-6.41,2.92-1.44,1.48-3.8,2.07-5.88,3.12,2.29,1.2,3.48.8,4.37-1H151l2.11-2,.22.27L152,160l.36.39c.53-.32,1.4-.52,1.54-1,.7-2.25,2.69-2.71,4.68-3.58l-1.34-.58Zm-31.3,24.29-6.8,3.61c.3,2.23-2.56,1.44-3,2.42-.75-.17-1.3-.48-1.5-.32-1.26.94-2.4,2.06-3.68,3a13.55,13.55,0,0,1-2.46,1.07l0-.14-12.11,7.14.44.75C107.67,190.59,118.47,186.65,127.1,178.91ZM95.75,188l-4.64,3.13,1.58.33c-.15.32-.31.68-.54,1.2l3.08-1.59C95.39,190.08,95.54,189.25,95.75,188Zm47.93-25.7c-2.61-.42-3.71,2-5.7,2.49C140.4,165.29,142.55,165.2,143.68,162.28Zm-43.16,20.09-.78-.35-1.4,3.15C101.15,185.1,99.48,183,100.52,182.37Z"/><path d="M64.05,62.68c-.8,1.2-1.64,2.38-2.4,3.6-.55.87-1,1.8-1.6,2.91l2.42.46-.31-.46a56.71,56.71,0,0,1,5.3-4.4c4.47-2.93,9.07-5.67,13.63-8.46a2.06,2.06,0,0,0,1.08-1.9c.88-6.81-.65-13.46-1-20.18-.25-4.85-.17-9.82,2.17-14.41a26.17,26.17,0,0,0,1.22-4.4c.2-.65.81-1.24.81-1.86a19.51,19.51,0,0,0-.56-3.42A8.64,8.64,0,0,0,86.65,10a2.48,2.48,0,0,0,1.4-.84,3.74,3.74,0,0,1,5.09-1.46c4.09,2.22,8.28,4.27,12.34,6.55,3.86,2.15,7.61,4.49,11.4,6.76a1.28,1.28,0,0,1,.52.51c.5,1.23.95,2.47,1.42,3.71.57,1.5-.74,2.26-1.21,3.37a45.74,45.74,0,0,0-2.5,7.83,84.58,84.58,0,0,0-1.51,9.76,76.25,76.25,0,0,0-.21,7.86c0,3.93.07,7.87.21,11.81.09,2.33.39,4.64.6,7.11,1.68.38.48,1.29-.25,2.17,1.87,1.19,1,2.77.75,4.27s-.36,2.72-.42,4.09c0,.28.49.58.82.94a4.73,4.73,0,0,0-1,1.14c-.27.66-1.58,1.41,0,2.11.1,0,.1.47,0,.69-.65,2.56,1,4.33,2.11,6.3a7.71,7.71,0,0,1,.52,1.13c1,2.66,2.18,5.28,2.92,8,.41,1.49.07,3.18.07,5.18,1.8.86.91,3-.11,3.55-1.56.79-2.27,2.51-4.28,2.88-2.41.44-4.67,1.79-6.93,2.88-1.42.69-2.67,1.73-4.09,2.42-2.45,1.19-5,2.19-7.45,3.33-1.8.83-3.49,2-5.35,2.59-1.71.59-3.38,1.06-4.42,2.68-2.74-.57-3,2.17-4.51,3.3-1.94,1.48-4,2.83-6,4.25A12.25,12.25,0,0,1,75.11,138c-1.67.83-3.38,1.56-5.06,2.35-.42.2-.8.47-1.2.71s-.71.65-1,.65c-2.68-.06-5.46.24-8-.42-2.76-.72-5.24-2.45-7.91-3.57a38,38,0,0,0-5.7-1.87,6.43,6.43,0,0,1-4.82-4.8,76.81,76.81,0,0,1-2.1-8.19,91.55,91.55,0,0,1-1.23-9.2c-.5-6-1.19-12.1-1.2-18.15,0-7.88.28-15.78,1-23.62.44-4.89,1.92-9.68,2.89-14.52.26-1.3.59-2.68-.82-3.76,1.43-2.65,2.72-5.45,4.39-8,.81-1.23,2.31-2,3.57-2.94,1.53-1.09,3.19-2,4.71-3.11s2.63-2.31,4.09-3.24a5.45,5.45,0,0,1,2.62-.45c.78,0,1.57.22,2.36.25,2,.08,2.62,1,2.19,2.95-.4,1.8-.74,3.6-1.09,5.41,0,.24-.12.56,0,.73,1.46,2.16-.16,4-.67,5.87-.38,1.41-.64,2.86-1,4.27a3.86,3.86,0,0,1-.52.92c-.15.25-.5.6-.43.75,1.17,2.63-1.17,4.51-1.49,7a10.31,10.31,0,0,1,1.54-.62c1.3-.29,2.61-.52,3.92-.77ZM86,81.77s-.46-.23-.48-.45c-.13-1.19-.13-2.39-.22-3.58-.2-2.6-.42-5.19-.64-7.78q-.28-3.17-.59-6.33l-.63,0v2.54L82,63.63c-.27.81-.28,1.59-.66,1.85-1.93,1.37-4,2.55-5.92,3.89-3,2.1-6.17,4.13-9,6.46a82.4,82.4,0,0,0-7,6.72,8.41,8.41,0,0,0-2.23,3.21,28.11,28.11,0,0,0-1,6.13c-.19,3,0,6-.26,9-.17,2.13.53,2.88,2.6,2.16,1.62-.56,3.23-1.15,4.79-1.85,1.4-.62,2.62-1.16,4.3-.59.8.28,2-.63,3-1,3.22-1.16,6.46-2.29,9.67-3.47,2-.75,4-1.59,5.7-2.25-.23-1.68-.5-2.94-.55-4.21A31.21,31.21,0,0,1,85.59,86C85.69,84.59,85.84,83.23,86,81.77Zm.71,13.44-9.82,5.28a11.25,11.25,0,0,0,3.47-.55c1.79-.54,3.52-1.26,5.33-1.72S88,96.84,86.69,95.21Z"/><path d="M144.63,3.13A21.48,21.48,0,0,1,147.1,4.3c2.08,1.36,4,2.87,6.7,3.1,1,.09,1.9,1.34,2.92,1.93s2.17.91,3.2,1.47c.87.48,2,.95,2.42,1.74,1.58,3.16,3,6.41,4.32,9.68a4.38,4.38,0,0,1,.12,2.36c-.6,3.17-1.44,6.3-1.94,9.49-.47,3-.62,6-.92,8.94-.53,5.13-1.14,10.26-1.56,15.4-.25,3-.25,6-.28,9.08-.06,4.44-.13,8.89,0,13.33.11,5.56.41,11.12.57,16.68.17,5.77.24,11.54.41,17.3,0,1.15.32,2.3.45,3.45.17,1.53.48,3.08-.85,4.33a1.46,1.46,0,0,0-.42,1c0,3.06-.17,3.18-3,2-.87,2.16-2.77,2-4.71,2.16-1.55.08-3.06.74-4.61.93a22.42,22.42,0,0,0-8.4,3,12,12,0,0,1-4.39,1.26c-2.88.36-5.25,1.74-7.64,3.21a26.26,26.26,0,0,1-3.12,1.14c-2.15.95-4.29,2-6.41,3-1.09.53-2.16,1.12-3.2,1.74a37.25,37.25,0,0,0-5.47,3.42,14.71,14.71,0,0,1-8.33,3.37c-2.5.22-3.7,1.82-5.34,2.8-4.61,2.74-8.9,6-13.37,9-2.91,1.94-5.94,3.7-8.85,5.66-2.38,1.6-4.61,3.42-7,5-1.62,1.09-3.36,2-5.06,3-1.38.81-2.73,1.67-4.16,2.38a9.41,9.41,0,0,1-2.56.74c-2.23.38-3.33,2.23-4.61,3.69-1.85,2.13-3.49,4.39-6.24,5.52a11.4,11.4,0,0,0-2.12,1.61c1.62-3.3,3.63-6.13,6.42-7.81,3.41-2,5.66-5.28,8.86-7.43,1.38-.93,1.94-2.52,3-3.53a77.4,77.4,0,0,1,9.79-7.94c3.72-2.44,7.08-5.34,10.71-7.88,1.56-1.09,2.91-2.61,4.61-3.32,4.47-1.87,7.36-5.75,11.22-8.39,3.41-2.32,6.14-5.6,9.31-8.3,5.19-4.42,10.62-8.56,15.71-13.1,4-3.55,7.39-7.74,11.42-11.23,3.63-3.14,2.51-7,2.5-10.73,0-2-.23-3.9-.32-5.86-.23-4.4-.5-8.79-.63-13.19-.25-8-.54-16-.56-24,0-5.5.43-11,.64-16.49q.19-5.07.28-10.13c.07-4.12.25-8.24.07-12.34a67.52,67.52,0,0,0-1.21-8.79A12.57,12.57,0,0,0,134.44,5c-.54-1.18,0-3,.52-4.42.19-.48,1.88-.71,2.76-.51A32.45,32.45,0,0,1,143,2a7.17,7.17,0,0,1,1.61,1.34Z"/><path d="M178.67,217.67l-1.52-.08a12.22,12.22,0,0,0,1.58,1.13,75.56,75.56,0,0,1,20.57,13.81c4.41,4.07,9,7.93,13.55,11.86.55.48,1.18.87,1.76,1.3-1.49,2.41,1.39,2.17,2.19,3.75a21.66,21.66,0,0,1-4.19.17,13.11,13.11,0,0,0-4.72-.08c-1.5.29-3.2-.42-4.81-.69a13.72,13.72,0,0,0-2.26-.34c-3,0-6-.13-8.94.09-4.15.33-8.33-.49-12.45.66-2.08.58-4.28.68-6.41,1.08a2,2,0,0,0-1.34.78c-.66,1.42-1.87,1.73-3.22,2.09a16,16,0,0,0-2.94,1.49,8.53,8.53,0,0,0-5.56-2.54c-3.72-.19-4.82-1.71-5.68-5.53-.53-2.34-1.41-4.61-2.17-6.91a94.75,94.75,0,0,0-3.61-10.41c-1-2.08-1.12-4.42-2.13-6.28a86.53,86.53,0,0,1-3.92-9.51c-1-2.62-2.71-4.88-3.64-7.75,2.22-2.5,4.82-4.29,8.61-3.15,4.22,1.26,8.59,2,12.42,4.44s7.61,4.71,11.52,6.88c2.35,1.32,4.88,2.3,7.34,3.43Z"/><path d="M64.1,62.72a6.25,6.25,0,0,1,1-2c.78-.63,1.87-1.45,2.71-1.33,1.82.27,1.92-.57,1.79-1.88h3c-2.57,2.1-5.17,4.27-8.57,5.14C64.05,62.68,64.1,62.72,64.1,62.72Z"/><path class="cls-2" d="M498.92,240.45c-.35-.9.39-1.51.39-2.39v-.47a2.06,2.06,0,0,0,0-2.27,1,1,0,0,1-.12-.44,31.44,31.44,0,0,0-.95-4.55c-.19-.39-.37-.83-.57-1.29-.66-1.62-.05-2.32.38-3.83a5.28,5.28,0,0,0,.08-2.05,26.05,26.05,0,0,0-.46-3.94l.7-.39c.1.14-.72.26-.7.39-.23-1.05.35-1.31.42-2.41a13.94,13.94,0,0,0-.2-5.33v-.43a6.22,6.22,0,0,0-.22-2.1,3.16,3.16,0,0,0-.17-.64h.1c-.06-.56-.14-1.22-.22-1.89l0,.1h0v.06l0-.13v0h0l-.9-2.65a.23.23,0,0,0,0,0v0h0v-.05l.05-.27h0v0h0v-.19h0s0,0,0,0a1,1,0,0,0,.08-.14h-.05l0-.09h0s0,0,0,0a.09.09,0,0,0,0-.09c0-.05,0-.12.07-.12h-.05v-.14h0a.58.58,0,0,1,.05-.18h0v-.23h-.15c0-.44,0-.86.05-1.21,0,0,0,0,.05-.07l.11.07,0-.12h-.09v-.06c-.05,0-.05-.12-.06-.19a6.71,6.71,0,0,0,.14-1.93.05.05,0,0,1,.05,0h0s0,0,0,0h0c0-.25-.09-.41-.13-.6a13.3,13.3,0,0,0-.46-3.29l.09,0,0,.07.11,0a6.48,6.48,0,0,0-.7-2.18h-.2a.67.67,0,0,1-.17-.35h-.05v-.07c0-.06-.07-.07-.1-.11v-.11h0v-.07h-.05a.31.31,0,0,0-.07-.15l0,0v-.06h0l0-.12s-.05,0-.05-.09h0v-.06c-.15,0-.11-.08-.17-.13h-.1v0l-.06,0v0h-.06V191h-.13v0h-.05v0h-.05l0-.06a.29.29,0,0,1-.1,0l0,0c-.07-.12,0-.12-.13-.12s-.06.05-.06.07a.15.15,0,0,1-.09,0v-.05h-.09v-.07a.28.28,0,0,0-.16.07v-.07h-.13l0,0h-.06a.64.64,0,0,1-.05.16c0-.07,0-.07-.14-.07a.31.31,0,0,0,0,.07.24.24,0,0,1-.1,0v-.05H493v-.07a.22.22,0,0,0-.16.07v-.07h-.11l0,0h-.09s0,0,0,.09h0a.09.09,0,0,1,0,.07.17.17,0,0,1-.08,0v-.05h-.11v-.07a.14.14,0,0,0-.14.07c0-.06,0-.07-.05-.07h-.07v0h-.07s0,.09,0,.16,0-.07-.12-.07l-.06.07a.3.3,0,0,1-.1,0v-.05h-.11v-.07l-.11,0,0,0h-.13v0h0l0,0-1.69-.13-.67.13,0,.24-.56-.28-.62-.11-.85-.29-.61,0a10.47,10.47,0,0,0-3.78-.36,10.18,10.18,0,0,1-2.12-.17c-.76-.14-1.51-.67-2.1-.5s-.95,1.32-1.67,1.25-.92-1.51-1.55-.39a6.69,6.69,0,0,0-1.54-.82c-.62-.13-.66.32-1.05.33h0a9.14,9.14,0,0,0-1.07-.12,9.24,9.24,0,0,0-4.62,1.16h0c-.17,0-.3.25-.3.58a9.32,9.32,0,0,1-1.18.05c-.08,1.38-.17,2.73-.19,4.08,0,1-.39,1.55-.39,2.43v1.64c0,1.24.35,4.11.35,4.11a3.84,3.84,0,0,1,.23,1.41,12.92,12.92,0,0,1,0,2c-.11.78-.11-.59-.11,1.15,0,1.15-.29,2.34.35,3.22.38.53.71.27.86,1.21a4.52,4.52,0,0,1,0,.59h-.05a2.17,2.17,0,0,0,0,.24s0,0-.05.07h.05a5.41,5.41,0,0,0-.1.86c0,.08,0,.18-.06.23-.34.81-1,1.39-1.31,2.27a8.84,8.84,0,0,0-.51,2.44c0,.94.45,1.64.45,2.52s.23.72,0,1.23a5.48,5.48,0,0,0-.45,1.9v2.48c0,.37.57,1.53.45,1.88a5.29,5.29,0,0,0-.3,1.81c0-.05.05-.05.06-.09a19.85,19.85,0,0,0,.39,4.24,1.85,1.85,0,0,0-.09.63,3.78,3.78,0,0,0-.05.76h.05c0,.26,0,.53,0,.79h-.06c.05.21.06.35.09.54v.6a.3.3,0,0,0,0,.14c0,.25,0,.51,0,.76-.1.58-.4,1-.55,1.65-.26,1.37.6,1.85.78,3.09.23,1.71-.1,3.66,0,5.39a11.38,11.38,0,0,0-.08,1.93c0,.19.74,1.67.82,1.35-.37,1.21.53,1.21,1.28,1.2,0,1.09.3,2.67,1.56,2.63.48,0,.61-.77,1.17-.77s.46.64,1,.62c.28,0,1.09-.69,1.52-.78a5.17,5.17,0,0,1,1.52-.15c1.11.21,1.62.95,2.94.89,1.12,0,2.42-.65,3.52-.31.8.19,1.17,1.26,2.15-.08.13.24.53.43.64.71.28-.23.58-.53.88-.76.65,1.39.92.18,1.76,0,.52-.11,1.07.28,1.65.24s1.18-.52,1.81-.4,1.56,1.27,1.93.37a.62.62,0,0,0-.05-.58l.41.05.45-.12.76.17.52.11,1,.48.94-.39.88-.09.51-.28.33-.3-.14-.35.07,0,.87.86.4.14a3.25,3.25,0,0,0,.62-.74c.34-.53.13-.53.13-1.16a1,1,0,0,0-.44-.88s0-.74.09-2c.05-.49.09-.79.09-1h-.06a6.24,6.24,0,0,0,.29-3.12c0,.06,0,.06,0,.11v-2.61a8.43,8.43,0,0,1,.64-2.51C499.75,241,499.2,241.31,498.92,240.45Z"/><g class="cls-3"><path class="cls-4" d="M467.22,233.26c.38-.35.7-.77,1.09-1.06a3.42,3.42,0,0,0,.87-.76c.13-.17.09-.55.25-.76s.39-.11.5-.23c.25-.3.58-.65.85-.95.63-.7,1.36-1.25,2-2a31.13,31.13,0,0,1,2.47-2.41c.44-.42.68-1,1.71-1.31s2.5-.71,2.5-.71a3,3,0,0,1,1.26-.43h2.07c.79,0,0-1.28,1.91.43a14,14,0,0,0,2.89,2.16s.33-.14,1.25.74,2.06,2,2.4,2.3a5.49,5.49,0,0,0,1.05.6l1,.26s.83.3.94.73a4.8,4.8,0,0,0,.8,1.73c.44.59.56.59,1.12,1.29a17,17,0,0,1,1.5,1.72.8.8,0,0,0,.17.21,11.81,11.81,0,0,1,0-1.19l-.11.1c-.26-.33.29-1.23.71-1.11s-.26-2.39-.26-2.39a13.79,13.79,0,0,0-1.52-.9c-.67-.34-1.27,0-1.83-.59s-.46-1-1-1.37c-.21-.14-.39,0-.63-.25s-.18-.49-.28-.58a4.88,4.88,0,0,0-1-.74c-.41-.32-.72-.82-1.16-1.11a8.27,8.27,0,0,1-1.08-.61c-.33-.27-.48-.65-.89-.84-.59-.22-1.15-.05-1.71-.53a7.79,7.79,0,0,1-.6-.74c-.17-.18-.4-.23-.61-.44s-.34-.51-.58-.77-.48-.37-.75-.64a2.77,2.77,0,0,1-.66-1.61,21.82,21.82,0,0,1-.06-4v-.23h1.88s2.71.88,3.52,1.31a5.84,5.84,0,0,1-.28.71c-.38.89-.81,1.32-.47,2.28a4.68,4.68,0,0,1,.09.54c.11,1.2,2.15-2.34,2.15-2.34l.19-.42a3.28,3.28,0,0,1,.61.26c.32.28-.18.39.26.7s1.05.11,1.73,1.15,1.93,1.85,2.4,2.74a2.89,2.89,0,0,0,1,1.16,5.32,5.32,0,0,1,1.07.39c0,.08,0,.21,0,.35a27.24,27.24,0,0,0-.48-4.06c-.05-.34-.42-.64-.87-.92h-.05v0h0l0-.05c-.05,0-.05,0-.06-.06h-.05v0h-.05c0-.06,0-.06-.05-.06h0c-.49-.3-1-.62-1.2-.79a17.18,17.18,0,0,1-1.59-1.8.23.23,0,0,0-.12,0c0-.12,0-.14-.05-.19a2,2,0,0,1-.23-.3h-.12a.21.21,0,0,0,0-.15c-.16-.11-.35-.13-.81-.13s-.73.07-1,0l-.66.11s-2.45-.64-2.46-.93a1.55,1.55,0,0,0-.59-.51,8.12,8.12,0,0,0-3.23-.49h-.61a4.11,4.11,0,0,1-.52-.55c-1-1.25-.68-.3-.58.55h-2.41l-1,.15h-1.41l-1.35.43c-.45.15-.33-.29-.9.43s-.48,1-1.05,1.58-.81.45-1.13.73-.36.1-.79.29-.69-.19-1.17.15-.47,0-1,.4a33.12,33.12,0,0,1-3.55,1.62c0,.33-.35.58-.51.88a.4.4,0,0,0-.06.24c-.05.34.19.58.23,1s-.39,1.77.17,2c1.3.39,3.12-1.72,4.26-2.11a10.24,10.24,0,0,0,3.34-2.09,7.49,7.49,0,0,1,1.77-1.32c.79-.32,1.49-.19,2.24-.79a7.34,7.34,0,0,1,2.4-1.13c.41-.18.95-.4,1.48-.58a2.24,2.24,0,0,1-.19,1.13c-.3.56-1.34.44-.79,1.55-.71.56.05,1.4-.17,2.28-.58,0-1,.54-1.54.74a8.87,8.87,0,0,0-3.24,1.91,6.22,6.22,0,0,1-3,1.29c-1.08.33-2,1.51-2.79,2.44a5.5,5.5,0,0,1-1.48,1.34c-.47.19-1.18,0-1.64.26s-.62,1-1,1.36a8.87,8.87,0,0,0-1.1.93c-.31.35-.57.7-.85,1a20.34,20.34,0,0,0,.34,4.27c.12-.31.3.05.7-.16.2-.14.51-.21.79-.4A8.54,8.54,0,0,0,467.22,233.26Zm.22-42.65c.47.61.31,1.9.31,2.58v9.37a19.52,19.52,0,0,0-.06,3.24c.06.49.37.84.4,1.27s-.11.75-.06.89c.14,1.27,1,1.25,1.48,2,.05,0-.2.36-.15.51s.22.08.31.23a5.18,5.18,0,0,0,.67.73,4.22,4.22,0,0,0,1.33,0c.27,0,.37.41.7.3s.15-.45.33-.52c.64-.41,1.05-.2,1.72-.15.83.09,1.76,0,2.63.06h2.71s.33.58.94,0a5.78,5.78,0,0,1,2.2-1s-.44,0,.64-.59,2.21-3.78,2.38-4.38a5.1,5.1,0,0,0,.17-1.22V193l-.34-1.22-.47-1c-.36-.78-1.59-.34-1.84.33-.19.46.13.37.17.76s0,.63,0,.93c0,.11-.16.28-.16.45s.3.36.3.57c0,.46-.37.56-.41.82-.12,1.27.76,2.92-.8,2.82a43,43,0,0,1-5-.63c-.11.14-.4.82-.58.84s-.71-.51-1-.58a2.07,2.07,0,0,0-1.35.5c-.94.91-.84,2.14.44,2.14h7.11c.58,0,1.53-.09,1.94.47a2.48,2.48,0,0,1-.12,2.47c-.52.52-1.67.22-2.29.22h-2.83l-1.11.19-.33-.19-.47.4h-.75l-.33-.4h-2.07l-.61.4-.33,1,.77.21H475c1,0,1.67-.3,2.68.16s.81.63,1.78.21a3.91,3.91,0,0,1,1.79-.18c.14,0,.2.27.39.32s.52-.27.68-.23.37.16.34.6c0-.07.18,0,.21.07-.14.6.24,1,.18,1.6-.24,0-.67-.09-.85,0-.36.21-.53.77-.87.95s-.84.19-1.11.33c.06,0-.18.35-.22.42a2.51,2.51,0,0,1-1.27.13h-5.31l-.94-.62s.16-.39-.44-.84a7,7,0,0,0-1.16-.55l-.28-1.19h.28l1-1.2.28-.81-1.28.42-.42-.61L470,203v-2a4.16,4.16,0,0,0,.56-1.71c-.05-.45-.56-.68-.6-1.11s.55-1.24.79-1.63c-.84-.62,0-1,0-1.67-.07-.51-.63-.6-.56-1.27,0-.28.49-.39.52-.69.1-.71-.43-1.15-.51-1.81a5.82,5.82,0,0,1,.45-1.89c.5-.16.93-.16.5-.16a10.13,10.13,0,0,0-4.65,1.07A1.21,1.21,0,0,1,467.44,190.61Zm9.31,39a5,5,0,0,0-.22,1.71c0,.42-.95-.53-.08,1.78s.3,1.47.82,2.28.77,1.35,1.19,1.62.55.4,1.07.4,1.07.13,1.6.13h1.41c.52,0,1.07.42,1.51-.13s1-1.23,1-1.23,1.2-.67,1.39-1.07.43-.25.43-.77a5.83,5.83,0,0,1,.22-1.23,10.15,10.15,0,0,0,.09-1.64,3.41,3.41,0,0,0-.31-1.6,7.21,7.21,0,0,0-.62-1.2l-.43-1.25.09-.52-1.08-.65-.76-.57-1.19-.66h-.49l-1.3.13-.41.15-.87.79-.84.39s-1-.23-1.29,0-.35.27-.35.94.35.94,0,1.5S477,229,476.75,229.62Zm2.36,1.71a2.77,2.77,0,0,1,.1-.86c.11-.27.18-.05.32-.32s0-.4,0-.74,0-.33.18-.49.62,0,.62,0l.42-.19.43-.39.21-.07.68-.06h.24l.59.34.37.25.54.33-.07.28.23.55a4.16,4.16,0,0,1,.3.66,1.73,1.73,0,0,1,.16.82,4,4,0,0,1-.05.77c-.05.42-.11.35-.11.61s-.09.18-.22.39-.67.55-.67.55l-.54.59c-.2.29-.5.07-.74.07h-.71c-.26,0-.53-.07-.79-.07a.73.73,0,0,1-.51-.19c-.23-.14-.33-.4-.61-.81s0,0-.44-1.14S479.11,231.57,479.11,231.33Zm-2.33,10.35a8.56,8.56,0,0,1,3.35-.86c.79-.15,2.79-.95,3.25.2.95-.65,2.3,0,3.32.29.75.18,1.11.95,1.82,1.25s1,.09,1.68.64c.15.1.15.44.3.52s.31-.08.43,0a16.14,16.14,0,0,1,1.31,1.07c.18.11.45-.12.59,0s.43.81.53,1.06a6.92,6.92,0,0,0,.68,1.66,6.21,6.21,0,0,0,2.58,2,10.1,10.1,0,0,0,1.95.57,6.08,6.08,0,0,0,.32-3.15,4.88,4.88,0,0,0-.46-1c-.29-.47-.71-.41-1-.76s0-.63-.35-.91c-.54-.57-1.63-.65-2.32-1.1s-1.09-1.38-1.84-1.75-1.39.1-2-.25c-.28-.16-.49-.64-.83-.77s-.72.08-1.08,0c-.75-.2-1.41-.85-2.19-1.1a8.1,8.1,0,0,0-2.55-.35h-1.5c-1.35,0-2.69,0-4.07-.12-.37,0-.88-.32-1.22-.26s-.28.21-.64.37-.69,0-1.14.07c-.79,0-.3-.21-.82.61-.24.42-.62.63-.87,1s-.15.69-.46,1a1.89,1.89,0,0,1-.28.17l-.16-.59-.36-.29s-.7,0-.42.52a2,2,0,0,1,.07.26.69.69,0,0,0-.49,0c-.28.13-.49.46-.76.58-.42.14-.72,0-1.16.29a4,4,0,0,0-1,.84c-1,.74-3,.23-3,2,.12.09.16,0,.28,0l.18-.07v.12l.1.09.47.34.45.13h.92l.66-.3a3.31,3.31,0,0,0,1.53-.08,15.54,15.54,0,0,0,1.7-1.22c.13-.07.31-.17.51-.3a17,17,0,0,1-.21,2.71c-.21,1.53-1.59,5,.44,5.21,1.16.14,1.87-.6,2.9-.87s2.16.64,3.2.78,1.88-.12,2.73.09a12,12,0,0,0,3,.81c.87,0,2.27-.37,3,.33.38.41.36.76,1,1s1.83.72,2.23,1.4l.43,0,.4-.1.79.19.52.12,1.05.46.94-.37.89-.09.53-.31.34-.3-.15-.37-.78-.21-.25.17c.25-.17-2.45-.91-2.49-.93-.46-.35-.46-1.07-.87-1.47s-1-.39-1.49-.6-.7-.67-1.13-.93-1.1,0-1.57-.23a1.13,1.13,0,0,1-.78-1.2,4.21,4.21,0,0,0-2-.26,5.35,5.35,0,0,1-1.5-.32,4.16,4.16,0,0,0-1.17,0,7.8,7.8,0,0,1-.81.23c-.26-.1-.3-.47-.55-.52a6.34,6.34,0,0,0-2.31-.25c-1,0-2.89.81-3.71-.32a3,3,0,0,1-.64-1.24,11.41,11.41,0,0,0-.12-1.17A16.18,16.18,0,0,1,474,244a3.08,3.08,0,0,1-.11-.36l1.26-1C475.67,242.34,476.25,242,476.78,241.68Z"/><path class="cls-4" d="M488.49,194a36,36,0,0,0,.91,5.43,4.15,4.15,0,0,0,.4,1.74,6.26,6.26,0,0,1,.74,3.3c0,1.06-.15,2.08-.15,3.17a18.66,18.66,0,0,1-.57,4.08c-.17.63-.3,1.21-.45,1.83,0,0,0,0,0-.06a4.33,4.33,0,0,1,0,1c-.11.33.68.48.68.48l1.8-.48.65-.12c-.2,0-.4-.18-.44-.63a4.26,4.26,0,0,1,.81-2c-.77-.56-.81-1.74-.7-2.7,0-.06.18-1.68.21-2.1l.12-1.37,0-1.35.22-1.83s-.13-1.23-.17-1.87a12.49,12.49,0,0,0-.85-3.09,13.64,13.64,0,0,1-.53-2.46,7.78,7.78,0,0,0-.56-3c-.53-1.06-1.24-1.43-.45-2.76l-.63-.42-.62-.15-.87-.27h-.62l.37,1C489.11,190.08,488.41,192.21,488.49,194Z"/></g></g></g></svg>